# xmcd CD database file
#
# Track frame offsets:
#	150
#	23935
#	45498
#	59260
#	74261
#	93532
#	118874
#	136285
#	160734
#	179969
#	192058
#
# Disc length: 3222 seconds
#
# Revision: 0
# Processed by: cddbd v1.5.1PL0 Copyright (c) Steve Scherf et al.
# Submitted via: CDex 1.51
#
DISCID=9c0c940b
DTITLE=水道道路〜SuiDo-DoRo - 水道道路〜SuiDo-DoRo
DYEAR=2005
DGENRE=Techno
TTITLE0=Speed is the power
TTITLE1=Waterworks〜水道道路
TTITLE2=Numbers
TTITLE3=トリコロールの刻
TTITLE4=総統閣下じゃありません - with 水道道路SEPIA
TTITLE5=運転
TTITLE6=大江戸クオリティ - with 水道道路SEPIA
TTITLE7=All I need
TTITLE8=小江戸
TTITLE9=しもんきん絵描き歌
TTITLE10=Live at Sabaco 2005-06-25 - Bonus Track
EXTD=YEAR: 2005
EXTT0=
EXTT1=
EXTT2=
EXTT3=
EXTT4=
EXTT5=
EXTT6=
EXTT7=
EXTT8=
EXTT9=
EXTT10=
PLAYORDER=
